<svg xmlns="http://www.w3.org/2000/svg" width="720" height="380" viewBox="0 0 720 380" role="img" aria-label="Tiempo relativo vs Pandas por operación — datos reales del notebook 02 del repositorio python-data-processing-benchmark">
  <title>Python Data Processing Benchmark — tiempo relativo vs Pandas</title>
  <text x="60" y="34" font-family="JetBrains Mono, monospace" font-size="13" font-weight="700" fill="#eef0f6">Tiempo relativo vs Pandas (menor = más rápido)</text>
  <text x="60" y="52" font-family="JetBrains Mono, monospace" font-size="10" fill="#6b7488">datos reales · notebooks/02_advanced-operations-notebook.ipynb</text>

  <line x1="60" y1="320" x2="700" y2="320" stroke="#2a3040" stroke-width="1"/>
  <g font-family="JetBrains Mono, monospace" font-size="10" fill="#6b7488">
    <text x="52" y="324" text-anchor="end">0.00</text>
    <line x1="60" y1="250" x2="700" y2="250" stroke="#1c2130" stroke-width="1" stroke-dasharray="3 4"/>
    <text x="52" y="254" text-anchor="end">0.25</text>
    <line x1="60" y1="180" x2="700" y2="180" stroke="#1c2130" stroke-width="1" stroke-dasharray="3 4"/>
    <text x="52" y="184" text-anchor="end">0.50</text>
    <line x1="60" y1="110" x2="700" y2="110" stroke="#1c2130" stroke-width="1" stroke-dasharray="3 4"/>
    <text x="52" y="114" text-anchor="end">0.75</text>
    <line x1="60" y1="40" x2="700" y2="40" stroke="#1c2130" stroke-width="1" stroke-dasharray="3 4"/>
    <text x="52" y="44" text-anchor="end">1.00</text>
  </g>

  <g>
    <rect x="60" y="230" width="58" height="90" rx="6" fill="#22d3ee" opacity="0.9"/>
    <rect x="132" y="173" width="58" height="147" rx="6" fill="#8b5cf6" opacity="0.9"/>
    <rect x="220" y="167" width="58" height="153" rx="6" fill="#22d3ee" opacity="0.9"/>
    <rect x="292" y="296" width="58" height="24" rx="6" fill="#8b5cf6" opacity="0.9"/>
    <rect x="380" y="79" width="58" height="241" rx="6" fill="#22d3ee" opacity="0.9"/>
    <rect x="452" y="297" width="58" height="23" rx="6" fill="#8b5cf6" opacity="0.9"/>
    <rect x="540" y="236" width="58" height="84" rx="6" fill="#22d3ee" opacity="0.9"/>
    <rect x="612" y="237" width="58" height="83" rx="6" fill="#8b5cf6" opacity="0.9"/>
  </g>

  <g font-family="JetBrains Mono, monospace" font-size="10" font-weight="700">
    <text x="89" y="222" text-anchor="middle" fill="#22d3ee">0.32</text>
    <text x="161" y="165" text-anchor="middle" fill="#8b5cf6">0.53</text>
    <text x="249" y="159" text-anchor="middle" fill="#22d3ee">0.55</text>
    <text x="321" y="288" text-anchor="middle" fill="#8b5cf6">0.08</text>
    <text x="409" y="71" text-anchor="middle" fill="#22d3ee">0.86</text>
    <text x="481" y="289" text-anchor="middle" fill="#8b5cf6">0.08</text>
    <text x="569" y="228" text-anchor="middle" fill="#22d3ee">0.30</text>
    <text x="641" y="229" text-anchor="middle" fill="#8b5cf6">0.30</text>
  </g>

  <g font-family="JetBrains Mono, monospace" font-size="12" fill="#eef0f6">
    <text x="125" y="348" text-anchor="middle">Joins</text>
    <text x="285" y="348" text-anchor="middle">Window</text>
    <text x="445" y="348" text-anchor="middle">Pivot</text>
    <text x="605" y="348" text-anchor="middle">Aggregation</text>
  </g>

  <g font-family="JetBrains Mono, monospace" font-size="11">
    <rect x="432" y="22" width="12" height="12" rx="3" fill="#22d3ee"/>
    <text x="450" y="32" fill="#9aa4ba">polars</text>
    <rect x="512" y="22" width="12" height="12" rx="3" fill="#8b5cf6"/>
    <text x="530" y="32" fill="#9aa4ba">data.table</text>
  </g>
</svg>
